<svg xmlns="http://www.w3.org/2000/svg" viewBox="0 0 200 80">
  <path d="M107.24,22.68C101.254,22.68 94.395,25.269 87.453,32.244L80,39.7L108.263,68.21C115.238,75.201 120.763,78.763 128.248,78.763L173.379,78.763L127.044,32.277C120.069,25.285 114.727,22.68 107.24,22.68Z" fill="#5fc4e1"/>
  <path d="M89.494,22.68C82.008,22.68 76.649,25.269 69.707,32.244C62.765,39.219 23.24,78.76 23.24,78.76L68.355,78.76C75.841,78.76 81.365,75.198 88.34,68.24L116.834,39.7L109.298,32.28C102.34,25.285 95.48,22.68 89.494,22.68Z" fill="#5fc4e1"/>
  <path d="M118,22.68L63.42,22.68C69.406,22.68 76.265,25.285 83.207,32.28L90.759,39.7L98.259,32.2C105.155,25.269 112.014,22.68 118,22.68Z" fill="#5fc4e1"/>
</svg>
