<?xml version="1.0" encoding="UTF-8" standalone="no"?>
<!DOCTYPE svg PUBLIC "-//W3C//DTD SVG 1.1//EN" "http://www.w3.org/Graphics/SVG/1.1/DTD/svg11.dtd">
<svg width="100%" height="100%" viewBox="0 0 307 57" version="1.1" xmlns="http://www.w3.org/2000/svg" xmlns:xlink="http://www.w3.org/1999/xlink" xml:space="preserve" xmlns:serif="http://www.serif.com/" style="fill-rule:evenodd;clip-rule:evenodd;stroke-linejoin:round;stroke-miterlimit:2;">
    <g id="SAB_logo" transform="matrix(1,0,0,1,-35.831,-34.968)">
        <g id="sab" transform="matrix(1,0,0,1,245.395,44.219)">
            <g id="Path_1" transform="matrix(1,0,0,1,-150.33,-22.788)">
                <path d="M151.979,62.164C154.504,63.581 157.331,64.372 160.224,64.473C163.786,64.473 165.369,63.022 165.369,60.911C165.369,58.8 164.05,57.611 160.092,56.228C153.826,54.051 151.192,50.622 151.254,46.862C151.254,41.19 155.937,36.771 163.39,36.771C166.337,36.735 169.251,37.39 171.899,38.684L170.25,44.422C168.173,43.255 165.838,42.62 163.456,42.575C160.556,42.575 158.971,43.96 158.971,45.875C158.971,47.79 160.488,48.909 164.577,50.36C170.377,52.471 173.086,55.439 173.151,60.254C173.151,66.054 168.6,70.345 160.091,70.345C156.697,70.388 153.344,69.595 150.329,68.036L151.979,62.164Z" style="fill:rgb(29,29,27);fill-rule:nonzero;"/>
            </g>
            <g id="Path_2" transform="matrix(1,0,0,1,-138.935,-22.795)">
                <path d="M195.065,61.892C195.025,64.472 195.18,67.052 195.527,69.609L188.2,69.609L187.672,66.047L187.472,66.047C185.131,68.854 181.626,70.436 177.972,70.334C177.788,70.345 177.605,70.35 177.421,70.35C172.192,70.35 167.89,66.047 167.89,60.819C167.89,60.803 167.89,60.786 167.89,60.77C167.89,52.657 175.079,48.57 186.952,48.634L186.952,48.106C186.952,45.995 186.095,42.5 180.352,42.5C177.312,42.505 174.328,43.325 171.712,44.874L170.067,39.6C173.601,37.663 177.581,36.686 181.61,36.764C191.899,36.764 194.801,43.364 194.801,50.285L195.065,61.892ZM187.15,53.911C181.412,53.779 175.937,55.032 175.937,59.911C175.926,60.037 175.92,60.164 175.92,60.291C175.92,62.625 177.84,64.545 180.174,64.545C180.301,64.545 180.428,64.539 180.554,64.528C183.389,64.572 185.949,62.785 186.886,60.109C187.066,59.533 187.155,58.932 187.15,58.328L187.15,53.911Z" style="fill:rgb(29,29,27);fill-rule:nonzero;"/>
            </g>
            <g id="Path_3" transform="matrix(1,0,0,1,-124.97,-28.29)">
                <path d="M189.674,28.29L197.787,28.29L197.787,47.418L197.919,47.418C200.186,43.999 204.112,42.035 208.208,42.273C216.057,42.273 221.663,48.873 221.597,58.565C221.597,70.108 214.276,75.846 207.02,75.846C202.867,76.061 198.931,73.914 196.863,70.306L196.731,70.306L196.331,75.121L189.41,75.121C189.542,72.944 189.674,69.383 189.674,66.085L189.674,28.29ZM197.787,61.862C197.785,62.505 197.852,63.146 197.987,63.775C198.815,67.089 201.81,69.436 205.226,69.447C210.305,69.447 213.471,65.358 213.471,58.894C213.471,53.222 210.771,48.605 205.358,48.605C201.898,48.709 198.925,51.163 198.169,54.541C198.004,55.233 197.915,55.941 197.905,56.652L197.787,61.862Z" style="fill:rgb(29,29,27);fill-rule:nonzero;"/>
            </g>
        </g>
        <g id="logo" transform="matrix(1,0,0,1,35.831,34.968)">
            <g id="Path_4" transform="matrix(1,0,0,1,13.594,-22.68)">
                <path d="M107.24,22.68C101.254,22.68 94.395,25.269 87.453,32.244L80,39.7L108.263,68.21C115.238,75.201 120.763,78.763 128.248,78.763L173.379,78.763L127.044,32.277C120.069,25.285 114.727,22.68 107.24,22.68Z" style="fill:url(#_Linear1);fill-rule:nonzero;"/>
            </g>
            <g id="Path_5" transform="matrix(1,0,0,1,-23.24,-22.68)">
                <path d="M89.494,22.68C82.008,22.68 76.649,25.269 69.707,32.244C62.765,39.219 23.24,78.76 23.24,78.76L68.355,78.76C75.841,78.76 81.365,75.198 88.34,68.24L116.834,39.7L109.298,32.28C102.34,25.285 95.48,22.68 89.494,22.68Z" style="fill:url(#_Linear2);fill-rule:nonzero;"/>
            </g>
            <g id="Path_6" transform="matrix(1,0,0,1,2.834,-22.68)">
                <path d="M118,22.68L63.42,22.68C69.406,22.68 76.265,25.285 83.207,32.28L90.759,39.7L98.259,32.2C105.155,25.269 112.014,22.68 118,22.68Z" style="fill:rgb(95,196,225);fill-rule:nonzero;"/>
            </g>
        </g>
    </g>
    <defs>
        <linearGradient id="_Linear1" x1="0" y1="0" x2="1" y2="0" gradientUnits="userSpaceOnUse" gradientTransform="matrix(4.82284e-15,78.763,-78.763,4.82284e-15,5854.93,3.55271e-15)"><stop offset="0" style="stop-color:rgb(39,86,99);stop-opacity:1"/><stop offset="0.6" style="stop-color:rgb(95,196,225);stop-opacity:1"/><stop offset="1" style="stop-color:rgb(95,196,225);stop-opacity:1"/></linearGradient>
        <linearGradient id="_Linear2" x1="0" y1="0" x2="1" y2="0" gradientUnits="userSpaceOnUse" gradientTransform="matrix(4.82266e-15,78.76,-78.76,4.82266e-15,5985.27,3.55271e-15)"><stop offset="0" style="stop-color:rgb(212,237,252);stop-opacity:1"/><stop offset="0.6" style="stop-color:rgb(95,196,225);stop-opacity:1"/><stop offset="1" style="stop-color:rgb(95,196,225);stop-opacity:1"/></linearGradient>
    </defs>
</svg>
