<svg id="Vrstva_1" data-name="Vrstva 1" xmlns="http://www.w3.org/2000/svg" viewBox="0 0 354.68 59.85">
	<defs>
		<style>.cls-1{fill:#fff;}</style>
	</defs>
	<path class="cls-1"
		  d="M102.12,32.39A17.24,17.24,0,0,0,89,38.4a19.3,19.3,0,0,0-5.42,13.29,20.21,20.21,0,0,0,5.32,13.45,17.36,17.36,0,0,0,13.58,6.2,16.28,16.28,0,0,0,13.11-5.91A20.42,20.42,0,0,0,120.37,52a20,20,0,0,0-5.24-13.6A16.81,16.81,0,0,0,102.12,32.39ZM96.06,62.21c-2-2.42-2.94-5.88-2.94-10.28s1-8,2.95-10.5,3.87-3.66,6-3.66,4,1.23,5.87,3.7,2.93,6.11,2.93,10.46-1,7.79-2.92,10.24-3.83,3.52-5.93,3.52S98,64.55,96.06,62.21Z"
		  transform="translate(-8.06 -11.65)"/>
	<path class="cls-1"
		  d="M79.85,33a6.13,6.13,0,0,0-2.81-.6,11.35,11.35,0,0,0-8.7,4.18c0-.65.07-1.34.13-2.07v-.13a2.22,2.22,0,0,0-2.19-2.5,3.31,3.31,0,0,0-2.1,1c-.23.2-1,.78-3.36,2.4s-3.24,1.67-3.56,1.67c-1,0-2.18.69-2.18,2.62s1.18,2.63,2.18,2.63c.66,0,1.89,0,1.89,3.05V63.81c0,.53,0,1.63-3.14,1.63-.34,0-2.06.13-2.06,2.66s1.72,2.64,2.06,2.64h.14c2.22-.21,5-.31,8.28-.31s6.06.1,8.31.31h.14c.34,0,2.06-.13,2.06-2.64s-1.72-2.66-2.06-2.66c-1.71,0-4.58-.21-4.58-1.63V49a10,10,0,0,1,1.42-5.76,3.38,3.38,0,0,1,2.92-1.79,5.22,5.22,0,0,1,2,.79,7.59,7.59,0,0,0,3.42,1.17,4.11,4.11,0,0,0,2.6-.95,5.26,5.26,0,0,0,1.7-2.09,4.7,4.7,0,0,0,.54-2,5.67,5.67,0,0,0-1-3.62A6.56,6.56,0,0,0,79.85,33Z"
		  transform="translate(-8.06 -11.65)"/>
	<path class="cls-1"
		  d="M47.17,17c-3.87-2.85-8.74-4.29-14.45-4.29-1.46,0-3.29,0-5.77.11-2.09.06-4.63.09-7.77.09-2.91,0-5.95-.07-9.1-.2-.61,0-2,.28-2,2.93s1.41,2.93,2,2.93c6.12,0,6.12,2.27,6.12,3.13v39.7c0,1,0,3.21-5.68,3.21H10.4c-.87.07-1.9.65-1.9,3,0,2.62,1.27,3,2,3h.14c2-.18,5.52-.28,10.42-.28s8.39.1,10.41.28h.14c.76,0,2-.4,2-3s-1.26-3-2-3c-6,0-6-2.33-6-3.21V46.2l.8.09c.48.06,1.62.14,6,.14,6.11,0,11.12-1.49,14.9-4.43a15.08,15.08,0,0,0,5.85-12.54A14.55,14.55,0,0,0,47.17,17ZM25.65,40.53a.17.17,0,0,1,0-.07V18.26l.38,0h3.59c4.2,0,7.58,1.11,10,3.3A10,10,0,0,1,43.3,29.3c0,7.93-4.23,11.62-13.32,11.62a22.4,22.4,0,0,1-3.85-.28c-.29,0-.44-.12-.48-.12Z"
		  transform="translate(-8.06 -11.65)"/>
	<path class="cls-1"
		  d="M217,33a6.1,6.1,0,0,0-2.81-.6,11.36,11.36,0,0,0-8.7,4.18c0-.65.07-1.34.13-2.07v-.13a2.22,2.22,0,0,0-2.19-2.5,3.31,3.31,0,0,0-2.1,1c-.23.2-1,.78-3.36,2.4s-3.24,1.67-3.55,1.67c-1,0-2.19.69-2.19,2.62s1.18,2.63,2.19,2.63c.65,0,1.88,0,1.88,3.05V63.81c0,.53,0,1.63-3.13,1.63-.35,0-2.07.13-2.07,2.66s1.72,2.64,2.07,2.64h.13c2.22-.21,5-.31,8.28-.31s6.07.1,8.31.31h.14c.34,0,2.06-.13,2.06-2.64s-1.72-2.66-2.06-2.66c-1.71,0-4.58-.21-4.58-1.63V49a10,10,0,0,1,1.43-5.76,3.37,3.37,0,0,1,2.91-1.79,5.22,5.22,0,0,1,2,.79,7.62,7.62,0,0,0,3.42,1.17,4.09,4.09,0,0,0,2.6-.95,5.26,5.26,0,0,0,1.7-2.09,4.7,4.7,0,0,0,.54-2,5.67,5.67,0,0,0-1-3.62A6.66,6.66,0,0,0,217,33Z"
		  transform="translate(-8.06 -11.65)"/>
	<path class="cls-1"
		  d="M247.75,48.32c2.21,0,3.52-1.55,3.52-4,0-2.06-1.27-4.49-3.88-7.44a13.22,13.22,0,0,0-10.3-4.45c-4.22,0-8.05,1.94-11.37,5.76a19.88,19.88,0,0,0-4.95,13.41,21.77,21.77,0,0,0,4.6,13.64c3.14,4.08,7,6.14,11.63,6.14s9-2,13.49-6a1.87,1.87,0,0,0,.7-1.47,2.63,2.63,0,0,0-.64-1.83,2.58,2.58,0,0,0-2-1,2.26,2.26,0,0,0-1.21.34,14.22,14.22,0,0,1-7.32,2.2,8.24,8.24,0,0,1-7.28-4,18.09,18.09,0,0,1-2.82-10.22,5.07,5.07,0,0,1,.1-1.15Zm-5.57-5.71h-11a10.37,10.37,0,0,1,2.36-3.5,5,5,0,0,1,3.51-1.34c1.1,0,2.25.72,3.41,2.13A10.06,10.06,0,0,1,242.18,42.61Z"
		  transform="translate(-8.06 -11.65)"/>
	<path class="cls-1"
		  d="M347.21,65.44c-3.17,0-3.17-1.1-3.17-1.63V46.18a17,17,0,0,0-.74-5.25,16.49,16.49,0,0,0-3.36-5.3c-1.9-2.15-4.73-3.24-8.44-3.24a15.72,15.72,0,0,0-11.72,5.08,11.49,11.49,0,0,0-9.58-5.08,14.85,14.85,0,0,0-9.72,3.47.61.61,0,0,0,0-.14c.06-.81.1-1.42.1-1.8a2,2,0,0,0-2.1-2.05c-.76,0-1.59.42-2.88,1.44A32.55,32.55,0,0,1,292,35.72a6.92,6.92,0,0,1-2.59,1.18c-1,0-2.19.69-2.19,2.62s1.18,2.63,2.19,2.63c.61,0,1.88,0,1.88,3.5V63.81c0,.49,0,1.63-3.38,1.63a2,2,0,0,0-1.47.67l0-.06a1.83,1.83,0,0,0,.21-.87l-.05-.38a2.83,2.83,0,0,0-2.41-2.31l-.21,0a2.07,2.07,0,0,0-.94.23l-.2.11a10.14,10.14,0,0,1-2,1.23c-.8,0-1.21-1.05-1.21-3.13V39.48c0-1.47-.59-3.57-3.4-5.27a12.11,12.11,0,0,0-6.31-1.82,21.12,21.12,0,0,0-10.66,3.23A11.82,11.82,0,0,0,256,39a9.29,9.29,0,0,0-1.9,5.4,3.46,3.46,0,0,0,3.71,3.76c1.36,0,3.72-.69,4.27-5.31.25-2.08.38-2.88.45-3.19.75-.83,2.13-1.25,4.11-1.25,3.84,0,3.84,1.44,3.84,2.05l0,7.26-9.32,5.18A16.87,16.87,0,0,0,258.17,55a10.49,10.49,0,0,0-2.73,3.43,8.77,8.77,0,0,0-1,4,10.59,10.59,0,0,0,.73,3.86,8.52,8.52,0,0,0,2.55,3.51,7.21,7.21,0,0,0,4.71,1.58,10.76,10.76,0,0,0,6.13-1.46A27.54,27.54,0,0,0,272,67.06c1.66,3.48,4.27,4.28,6.34,4.28a8.71,8.71,0,0,0,4.48-1,10.84,10.84,0,0,0,3.24-3.62,3.71,3.71,0,0,0-.25,1.43c0,2.51,1.72,2.64,2.06,2.64H288c2.14-.21,4.7-.31,7.59-.31s5.39.1,7.42.31h.15c.35,0,2.07-.13,2.07-2.64s-1.72-2.66-2.07-2.66c-2.77,0-2.77-1-2.77-1.63V45.16a3.85,3.85,0,0,1,.65-2.16,7.74,7.74,0,0,1,1.79-2,17.37,17.37,0,0,1,2.39-1.53,5.19,5.19,0,0,1,2.41-.5c2.19,0,3.1.39,3.44.62A4.07,4.07,0,0,1,312.46,42a20.76,20.76,0,0,1,.59,5.51V63.81c0,.57,0,1.63-2.92,1.63-.35,0-2.06.13-2.06,2.66s1.71,2.64,2.06,2.64h.15c2.07-.21,4.56-.31,7.41-.31s5.38.1,7.51.31h.14c.35,0,2.07-.13,2.07-2.64s-1.72-2.66-2.07-2.66c-3.13,0-3.13-1.1-3.13-1.63V49.72c0-3.44.62-6.17,1.85-8.1a4.8,4.8,0,0,1,4.31-2.6,7.93,7.93,0,0,1,4.84,1.37c1.11.81,1.67,2.55,1.67,5.18V63.81c0,.57,0,1.63-2.94,1.63-.35,0-2.06.13-2.06,2.66s1.71,2.64,2.06,2.64h.15c2.08-.21,4.61-.31,7.5-.31s5.41.1,7.47.31h.15c.34,0,2.06-.13,2.06-2.64S347.55,65.44,347.21,65.44Zm-82.77-2a2.69,2.69,0,0,1-.81-2.11c0-3.09,2-5.57,6-7.59l.82-.39v7.54a3.6,3.6,0,0,1-1.26,2.1,3.69,3.69,0,0,1-2.27,1.26A3.37,3.37,0,0,1,264.44,63.46Z"
		  transform="translate(-8.06 -11.65)"/>
	<path class="cls-1"
		  d="M190.71,63.9A2,2,0,0,0,189,62.71a2.28,2.28,0,0,0-1.31.43,6.26,6.26,0,0,1-3.5,1.3c-2.43,0-3.31-.91-3.77-1.6-.57-.84-1.25-2.68-1.25-6.69V39.94a.41.41,0,0,1,0-.12h10c.94,0,2.06-.58,2.06-3.31S190,33.2,189.1,33.2h-10a1.09,1.09,0,0,1,0-.22V29a2.07,2.07,0,0,0-1.28-1.91,2.4,2.4,0,0,0-3.42.94A13.13,13.13,0,0,1,172.67,31a14.21,14.21,0,0,1-2.9,2.83A5,5,0,0,1,166.9,35a2.13,2.13,0,0,0-2.06,2.42,2.13,2.13,0,0,0,2.06,2.43h3V60.34c0,3.78.85,6.59,2.54,8.36s4.42,2.64,8.22,2.64a12.44,12.44,0,0,0,10-4.63,2,2,0,0,0,.41-1.34A3,3,0,0,0,190.71,63.9Z"
		  transform="translate(-8.06 -11.65)"/>
	<path class="cls-1"
		  d="M145.06,35.15c-7.18-1.45-10.67-4.83-10.67-10.32a7.42,7.42,0,0,1,2.08-5.28,7,7,0,0,1,5.43-2.19c3.21,0,5.59.74,7.27,2.25a10.88,10.88,0,0,1,3.3,6.23l0,.15a2.25,2.25,0,0,0,2.24,1.64,5.93,5.93,0,0,0,1.77-.28,2.29,2.29,0,0,0,1.71-2.3,56,56,0,0,0-1.58-10.67l-.42-1.53-1.35.45h-.29c-.12,0-.75-.09-3.7-.78a34.62,34.62,0,0,0-8-.87,18.05,18.05,0,0,0-12.16,4.22,13.71,13.71,0,0,0-5,10.78h0c0,10.31,5.91,16.89,17.48,19.57,6.36,1.45,9.46,4.86,9.46,10.46a9,9,0,0,1-2.26,6.4,6.69,6.69,0,0,1-5.22,2.4c-4.25,0-7.53-1.16-10-3.53a12.36,12.36,0,0,1-4-8.27C131,52.57,130.1,52,128.41,52c-1.89,0-2.56.85-2.79,1.56a4.6,4.6,0,0,0-.24,1.42,38.67,38.67,0,0,0,2.05,11.45l.19.6.56.29a48.24,48.24,0,0,0,7.72,3.29,29.77,29.77,0,0,0,8.13.9,16.54,16.54,0,0,0,12.38-5c3.21-3.32,4.83-7.79,4.83-13.27C161.24,43.43,155.8,37.36,145.06,35.15Z"
		  transform="translate(-8.06 -11.65)"/>
	<path class="cls-1"
		  d="M359.3,23.43s-.23,0-.79-.49a9.37,9.37,0,0,1-1.83-2.3,2.16,2.16,0,0,0,1.45-2.2,2.16,2.16,0,0,0-.87-1.83A3.69,3.69,0,0,0,355,16h-1.93l-1.19,0c-.07,0-.45,0-.45.58s.38.59.45.59c.31,0,.67,0,.67.23v5.47c0,.08,0,.27-.62.27-.07,0-.45,0-.45.57s.36.59.49.59.75,0,1.44,0,1.17,0,1.52,0c.12,0,.41-.1.41-.59s-.38-.57-.46-.57c-.46,0-.69-.1-.69-.27V21h.34a.49.49,0,0,1,.27.06,2.06,2.06,0,0,1,.31.38l1,1.43A5.36,5.36,0,0,0,357.38,24a2.72,2.72,0,0,0,1.54.36l.38,0a.46.46,0,0,0,.45-.48A.45.45,0,0,0,359.3,23.43Zm0,.2Zm-2.85-5.19c0,.67-.2,1.43-1.76,1.43a2.69,2.69,0,0,1-.43,0V17.09h.37a2,2,0,0,1,1.37.41A1.17,1.17,0,0,1,356.42,18.44Z"
		  transform="translate(-8.06 -11.65)"/>
	<path class="cls-1"
		  d="M360.47,14.69h0a7.77,7.77,0,0,0-13.26,5.5,7.77,7.77,0,1,0,15.53,0A7.52,7.52,0,0,0,360.47,14.69Zm-5.5-.8a6,6,0,0,1,4.46,1.84,6.09,6.09,0,0,1,1.85,4.46,6,6,0,0,1-1.87,4.46h0a6.07,6.07,0,0,1-4.5,1.85,5.78,5.78,0,0,1-4.43-1.9,6.31,6.31,0,0,1-1.81-4.48,6.28,6.28,0,0,1,6.3-6.23Z"
		  transform="translate(-8.06 -11.65)"/>
</svg>